<svg xmlns="http://www.w3.org/2000/svg" viewBox="0 0 625.57 127.51">
  <g id="Layer_2" data-name="Layer 2">
    <g id="Layer_1-2" data-name="Layer 1">
      <g>
        <g>
          <path d="M346.66,75.61A3.48,3.48,0,0,1,344.6,75a3.54,3.54,0,0,1-.83-5L367.4,36.88V20a10.07,10.07,0,0,1,1.87-20h27.41a10.07,10.07,0,0,1,1.53,20V36.88L421.83,70a3.55,3.55,0,1,1-5.78,4.12l-24.94-35V13h5.57a3,3,0,0,0,0-5.94H369.27a3,3,0,1,0,0,5.94h5.22V39.15l-24.94,35A3.54,3.54,0,0,1,346.66,75.61Z" style="fill: #292b37"/>
          <path d="M392.26,96.41a3.55,3.55,0,0,1-2.84-5.67l11.91-16L389.68,57.55a3.55,3.55,0,0,1,5.88-4l13.07,19.31a3.56,3.56,0,0,1-.1,4.12L395.11,95A3.54,3.54,0,0,1,392.26,96.41Z" style="fill: #ca5b56"/>
          <path d="M373.28,96.41A3.54,3.54,0,0,1,370.43,95L357,77a3.56,3.56,0,0,1-.1-4.12L370,53.57a3.55,3.55,0,0,1,5.88,4L364.21,74.77l11.91,16a3.55,3.55,0,0,1-2.84,5.67Z" style="fill: #ca5b56"/>
          <circle cx="372.42" cy="74.67" r="3.42" style="fill: #292b37"/>
          <circle cx="383.03" cy="74.67" r="3.42" style="fill: #292b37"/>
          <circle cx="393.18" cy="74.67" r="3.42" style="fill: #292b37"/>
        </g>
        <g>
          <path d="M64.33,87.52C57.06,94.69,47.66,98,37.46,98,11.21,98,.1,80,0,61.57S11.92,24.31,37.46,24.31a36.47,36.47,0,0,1,26,10.8L54.53,43.7A24.26,24.26,0,0,0,37.46,37C20.4,37,13,49.75,13.13,61.57S20,85.5,37.46,85.5a26,26,0,0,0,17.78-7.17Z" style="fill: #292b37"/>
          <path d="M93.31,45.61c15.85,0,26.05,11.72,26.05,26s-9.79,26-25.95,26S67.56,85.91,67.56,71.57,77.45,45.61,93.31,45.61Zm.1,11.21c-8.89,0-13.53,7.27-13.53,14.75s4.54,14.64,13.53,14.64,13.53-7.07,13.53-14.64S101.69,56.82,93.41,56.82Zm15.85-31.5H94.72L87.25,39.05v.61h10.9l11.11-13.84Z" style="fill: #292b37"/>
          <path d="M179.54,25.82V96.41H168l-.81-6.87c-3.83,6-10,8-16.05,8-14.64,0-25.65-9.7-25.65-26,0-17.17,10.8-26.06,25.34-26.06,5.26,0,13.44,2.83,16.36,8V25.82Zm-41.7,45.65c0,8.68,6.26,14.64,14.14,14.64s14.44-5.66,14.44-14.64A14.21,14.21,0,0,0,152,56.92C144.1,56.92,137.84,62.48,137.84,71.47Z" style="fill: #292b37"/>
          <path d="M203.68,32.59c0,9.59-14.54,9.59-14.54,0S203.68,23,203.68,32.59ZM190.25,46.42v50h12.32v-50Z" style="fill: #292b37"/>
          <path d="M252.75,41.57l9.09,6.87-5.55,7.07a21.2,21.2,0,0,1,5.25,14.74c0,6.16-2.32,14.85-10.5,18.58,8.28,4.14,10.3,10.1,10.3,16.46,0,13.74-10.5,22.22-24.94,22.22s-25.25-8.78-25.25-22.22h12.22c0,6.47,6,10.71,13,10.71S249,112.16,249,105.29s-6.46-10-12.62-10c-15.56,0-25.25-9.5-25.25-25S222.46,45,236.4,45c3.93,0,8,.5,11.41,2.83ZM223.37,70.25c0,8.69,5.86,13.84,13,13.84s12.92-5.25,12.92-13.84-5.86-14-12.92-14S223.37,61.57,223.37,70.25Z" style="fill: #292b37"/>
          <path d="M318.9,71.57c0,14.34-9.8,26-26,26s-25.85-11.61-25.85-25.95,9.9-26,25.75-26S318.9,57.33,318.9,71.57Zm-39.49,0c0,7.57,4.55,14.64,13.53,14.64s13.54-7.07,13.54-14.64-5.25-14.75-13.54-14.75C284.06,56.82,279.41,64.09,279.41,71.57Z" style="fill: #292b37"/>
          <path d="M464,25.72V84.09h36.35V96.41H450.68V25.72Z" style="fill: #292b37"/>
          <path d="M550.34,46.62h11.82V96.41H550.54l-.6-7.27c-2.83,5.85-10.6,8.68-16.16,8.78-14.74.1-25.65-9-25.65-26.45,0-17.17,11.41-26.16,26-26.06,6.67,0,13,3.13,15.86,8.08ZM520.45,71.47c0,9.49,6.57,15.14,14.74,15.14,19.39,0,19.39-30.19,0-30.19C527,56.42,520.45,62,520.45,71.47Z" style="fill: #292b37"/>
          <path d="M583.87,25.82V53.39c2.93-5.15,11.11-8,16.36-8,14.54,0,25.34,8.89,25.34,26.06,0,16.35-11,26.05-25.65,26.05-6,0-12.21-2-16-8l-.81,6.87H571.55V25.82Zm.81,45.65c0,9,6.66,14.64,14.44,14.64s14.13-6,14.13-14.64c0-9-6.26-14.55-14.13-14.55A14.21,14.21,0,0,0,584.68,71.47Z" style="fill: #292b37"/>
        </g>
      </g>
    </g>
  </g>
</svg>
