

<svg xmlns="http://www.w3.org/2000/svg" xmlns:xlink="http://www.w3.org/1999/xlink" viewBox="0 0 2767 1844.48"><defs><style>.cls-1,.cls-4,.cls-5,.cls-6{fill:#85d3ea;}.cls-1{opacity:0.8;}.cls-2{fill:#ca5b56;}.cls-19,.cls-3{fill:#29c2de;}.cls-12,.cls-19,.cls-20,.cls-5{opacity:0.45;}.cls-6{opacity:0.34;}.cls-7{fill:#bbbdbf;}.cls-8{fill:#d0d2d3;}.cls-9{fill:#f0f0f0;}.cls-10{fill:#fefdfd;}.cls-11,.cls-13,.cls-14,.cls-17,.cls-18,.cls-22,.cls-23,.cls-24,.cls-32,.cls-41,.cls-42,.cls-43,.cls-45{fill:none;}.cls-11,.cls-12,.cls-13,.cls-14,.cls-17,.cls-21,.cls-22,.cls-23,.cls-24,.cls-32,.cls-40,.cls-41,.cls-45{stroke-miterlimit:10;}.cls-11,.cls-14,.cls-42{stroke-width:20px;}.cls-11{stroke:url(#linear-gradient);}.cls-12,.cls-16,.cls-20,.cls-40{fill:#ca5b56;}.cls-12,.cls-13{stroke:#ca5b56;}.cls-12,.cls-17,.cls-18,.cls-24{stroke-width:10px;}.cls-13,.cls-14,.cls-17,.cls-18,.cls-40,.cls-41,.cls-42,.cls-43,.cls-45{stroke-linecap:round;}.cls-13{stroke-width:8.06px;}.cls-14,.cls-17{stroke:#29c2de;}.cls-15{fill:url(#linear-gradient-2);}.cls-18,.cls-42,.cls-43{stroke-linejoin:round;}.cls-18{stroke:url(#linear-gradient-3);}.cls-21{fill:#fff;stroke-width:3.42px;}.cls-21,.cls-22,.cls-23{stroke:#fff;}.cls-22{stroke-width:13.78px;stroke-dasharray:17.42 17.42;}.cls-23{stroke-width:10.13px;}.cls-24{stroke:url(#radial-gradient);}.cls-25{fill:url(#linear-gradient-4);}.cls-26{fill:url(#linear-gradient-5);}.cls-27{fill:url(#linear-gradient-6);}.cls-28{fill:url(#linear-gradient-7);}.cls-29{fill:url(#linear-gradient-8);}.cls-30{fill:url(#linear-gradient-9);}.cls-31{fill:url(#linear-gradient-10);}.cls-32{stroke-width:12.16px;stroke:url(#linear-gradient-11);}.cls-33{fill:url(#linear-gradient-12);}.cls-34{fill:url(#linear-gradient-13);}.cls-35{fill:url(#linear-gradient-14);}.cls-36{fill:url(#linear-gradient-15);}.cls-37{fill:url(#linear-gradient-16);}.cls-38{fill:url(#linear-gradient-17);}.cls-39{fill:url(#linear-gradient-18);}.cls-40,.cls-41{stroke:#ca5b56;stroke-width:14.12px;}.cls-42{stroke:url(#linear-gradient-19);}.cls-43,.cls-45{stroke-width:30px;}.cls-43{stroke:url(#linear-gradient-20);}.cls-44{fill:url(#linear-gradient-21);}.cls-45{stroke:url(#linear-gradient-22);}</style><linearGradient id="linear-gradient" x1="684.55" y1="727.69" x2="812.84" y2="727.69" gradientUnits="userSpaceOnUse"><stop offset="0.08" stop-color="#29c2de"/><stop offset="0.46" stop-color="#85d3ea"/><stop offset="0.74" stop-color="#a2ddef"/><stop offset="1" stop-color="#bfe8f4"/></linearGradient><linearGradient id="linear-gradient-2" x1="1359.95" y1="1318.24" x2="1302.74" y2="1342.81" gradientTransform="matrix(-0.54, -0.9, 0.94, -0.56, 223.39, 2862.97)" xlink:href="#linear-gradient"/><linearGradient id="linear-gradient-3" x1="1490.91" y1="1076.32" x2="1711.4" y2="1076.32" gradientUnits="userSpaceOnUse"><stop offset="0.18" stop-color="#e66600"/><stop offset="1" stop-color="#ca5b56"/></linearGradient><radialGradient id="radial-gradient" cx="2020.89" cy="1307.66" r="160.67" gradientUnits="userSpaceOnUse"><stop offset="0.07" stop-color="#29c2de"/><stop offset="0.62" stop-color="#85d3ea"/><stop offset="0.87" stop-color="#a2ddef"/><stop offset="1" stop-color="#bfe8f4"/></radialGradient><linearGradient id="linear-gradient-4" x1="1981.61" y1="1152.15" x2="2027.81" y2="1142.51" gradientUnits="userSpaceOnUse"><stop offset="0" stop-color="#29c2de"/><stop offset="0.42" stop-color="#85d3ea"/><stop offset="0.65" stop-color="#a2ddef"/><stop offset="1" stop-color="#bfe8f4"/></linearGradient><linearGradient id="linear-gradient-5" x1="1954.19" y1="1216.54" x2="1993.04" y2="1173.99" xlink:href="#radial-gradient"/><linearGradient id="linear-gradient-6" x1="1986.82" y1="1256.02" x2="2045" y2="1256.02" xlink:href="#radial-gradient"/><linearGradient id="linear-gradient-7" x1="2000.08" y1="1311.31" x2="2058.02" y2="1311.31" xlink:href="#radial-gradient"/><linearGradient id="linear-gradient-8" x1="2010.8" y1="1188.78" x2="2052.34" y2="1188.78" gradientUnits="userSpaceOnUse"><stop offset="0" stop-color="#29c2de"/><stop offset="0.35" stop-color="#85d3ea"/><stop offset="0.42" stop-color="#a2ddef"/><stop offset="1" stop-color="#bfe8f4"/></linearGradient><linearGradient id="linear-gradient-9" x1="2066.6" y1="1383.14" x2="2119.3" y2="1383.14" xlink:href="#radial-gradient"/><linearGradient id="linear-gradient-10" x1="2058.36" y1="1443.09" x2="2115.61" y2="1443.09" xlink:href="#radial-gradient"/><linearGradient id="linear-gradient-11" x1="1950.47" y1="1301.53" x2="2070.92" y2="1301.53" gradientTransform="matrix(-0.86, -0.51, -0.51, 0.86, 4567.01, 1214.3)" xlink:href="#radial-gradient"/><linearGradient id="linear-gradient-12" x1="1965" y1="1110.14" x2="2022.39" y2="1110.14" gradientTransform="matrix(-0.86, -0.51, -0.51, 0.86, 4567.01, 1214.3)" xlink:href="#radial-gradient"/><linearGradient id="linear-gradient-13" x1="1908.05" y1="1082.8" x2="1954.19" y2="1082.8" gradientTransform="matrix(-0.86, -0.51, -0.51, 0.86, 4567.01, 1214.3)" xlink:href="#radial-gradient"/><linearGradient id="linear-gradient-14" x1="1972.67" y1="1242.83" x2="2043.41" y2="1242.83" gradientTransform="matrix(-0.86, -0.51, -0.51, 0.86, 4567.01, 1214.3)" xlink:href="#radial-gradient"/><linearGradient id="linear-gradient-15" x1="2001.82" y1="1161.07" x2="2052.33" y2="1161.07" gradientTransform="matrix(-0.86, -0.51, -0.51, 0.86, 4567.01, 1214.3)" xlink:href="#radial-gradient"/><linearGradient id="linear-gradient-16" x1="2035.63" y1="1201.99" x2="2090.57" y2="1201.99" gradientTransform="matrix(-0.86, -0.51, -0.51, 0.86, 4567.01, 1214.3)" xlink:href="#radial-gradient"/><linearGradient id="linear-gradient-17" x1="2059.66" y1="1265.86" x2="2121.49" y2="1265.86" gradientTransform="matrix(-0.86, -0.51, -0.51, 0.86, 4567.01, 1214.3)" xlink:href="#radial-gradient"/><linearGradient id="linear-gradient-18" x1="2069.67" y1="1328.3" x2="2133.76" y2="1328.3" gradientTransform="matrix(-0.86, -0.51, -0.51, 0.86, 4567.01, 1214.3)" xlink:href="#radial-gradient"/><linearGradient id="linear-gradient-19" x1="777.31" y1="901.42" x2="871.46" y2="901.42" xlink:href="#linear-gradient"/><linearGradient id="linear-gradient-20" x1="759.7" y1="1137.79" x2="887.2" y2="1137.79" xlink:href="#linear-gradient"/><linearGradient id="linear-gradient-21" x1="728.65" y1="1034.85" x2="802.83" y2="1034.85" xlink:href="#radial-gradient"/><linearGradient id="linear-gradient-22" x1="734.06" y1="1178.62" x2="824.83" y2="1178.62" xlink:href="#radial-gradient"/></defs><title>acaDev_homepage</title><g id="Layer_1" data-name="Layer 1"><path class="cls-1" d="M0,1872H802.53a55,55,0,0,1,54.82,55.17h0a55,55,0,0,1-54.82,55.16H0" transform="translate(0 -137.83)"/><path class="cls-2" d="M.38,758.65" transform="translate(0 -137.83)"/><path class="cls-2" d="M.38,649H502.07c28.6,0,51.78,24.54,51.78,54.83h0c0,30.28-23.18,54.82-51.78,54.82H.38" transform="translate(0 -137.83)"/><path class="cls-3" d="M2767,293.18H2156a51.78,51.78,0,0,1-51.78-51.78h0A51.79,51.79,0,0,1,2156,189.61h611" transform="translate(0 -137.83)"/><path class="cls-3" d="M2766.77,1670.65" transform="translate(0 -137.83)"/><path class="cls-4" d="M2765,1978.92H1648.07a51.78,51.78,0,0,1-51.78-51.78h0a51.79,51.79,0,0,1,51.78-51.79H2765" transform="translate(0 -137.83)"/><rect class="cls-4" x="79.68" width="1042.23" height="103.57" rx="51.78"/><rect class="cls-5" x="139.25" y="32.56" width="1042.23" height="103.57" rx="51.78"/><path class="cls-3" d="M0,1829.86H758c28.6,0,51.79,24.69,51.79,55.16h0c0,30.47-23.19,55.16-51.79,55.16H0" transform="translate(0 -137.83)"/></g><g id="Layer_4" data-name="Layer 4"><rect class="cls-4" x="1013.24" y="488.24" width="1633" height="103.57" rx="51.78"/></g><g id="Layer_6" data-name="Layer 6"><rect class="cls-3" x="288.69" y="962.61" width="1315.85" height="103.57" rx="51.78"/></g><g id="computer"><ellipse class="cls-6" cx="1497.25" cy="1355.45" rx="1148.99" ry="80.49"/><ellipse class="cls-6" cx="1454.28" cy="1526.36" rx="80.5" ry="1148.9" transform="translate(-117.54 2793.55) rotate(-88.18)"/><ellipse class="cls-4" cx="1313.48" cy="1494.99" rx="80.5" ry="847.93" transform="translate(-222.51 2622.45) rotate(-88.18)"/><path class="cls-7" d="M2025.8,1516.9l-812.07-126.83a27.59,27.59,0,0,1-22.15-35.25l196.29-649A27.62,27.62,0,0,1,1408,686.94l872.8-203.32a18,18,0,0,1,21.64,21.56l-245.62,991.09A27.59,27.59,0,0,1,2025.8,1516.9Z" transform="translate(0 -137.83)"/><path class="cls-8" d="M2037.76,1521.8l-868.37-135.62,205-677.69a20.31,20.31,0,0,1,14.73-13.88l878.72-210a18,18,0,0,1,21.64,21.56Z" transform="translate(0 -137.83)"/><path class="cls-7" d="M1990.44,1533.9,1023.54,1607a117.88,117.88,0,0,1-37.88-3.29l-584.94-148.5a37.82,37.82,0,0,1-26.81-25.39l-1.86-6a2.84,2.84,0,0,1,3.36-3.61L1002,1569.71a2.57,2.57,0,0,0,.87.07l1020.6-77.59a2.83,2.83,0,0,1,3,2.83h0A39,39,0,0,1,1990.44,1533.9Z" transform="translate(0 -137.83)"/><path class="cls-9" d="M2026.49,1492,1003,1569.76a3.6,3.6,0,0,1-1.18-.08l-628.73-150a.38.38,0,0,1,.07-.74l809.59-38.82Z" transform="translate(0 -137.83)"/><path class="cls-10" d="M1389,750.58l-162.07,549a13.37,13.37,0,0,0,11.59,17.23l769.16,56.28a13.11,13.11,0,0,0,13.63-10.14l191.37-792.38c2.34-9.68-6.12-18.5-15.61-16.27L1398.55,741.4A13.19,13.19,0,0,0,1389,750.58Z" transform="translate(0 -137.83)"/><path class="cls-11" d="M748.69,661.84a54.12,54.12,0,0,0-35.57,94.95h0l21.67,36.76h27.52l22-36.76h0a54.14,54.14,0,0,0-35.58-94.95Z" transform="translate(0 -137.83)"/><polygon class="cls-2" points="729.14 664.14 727.36 673.11 729.14 679.98 748.69 679.98 748.69 664.14 729.14 664.14"/><polygon class="cls-2" points="768.25 664.14 770.03 673.11 768.25 679.98 748.7 679.98 748.7 664.14 768.25 664.14"/><polygon class="cls-2" points="729.15 685.44 727.37 694.41 729.15 701.28 748.7 701.28 748.7 685.44 729.15 685.44"/><polygon class="cls-2" points="768.26 685.44 770.04 694.41 768.26 701.28 748.71 701.28 748.71 685.44 768.26 685.44"/><line class="cls-12" x1="748.71" y1="465.77" x2="748.71" y2="495.04"/><line class="cls-12" x1="834.3" y1="500.82" x2="813.61" y2="521.52"/><line class="cls-13" x1="748.69" y1="625.55" x2="748.69" y2="654.82"/><line class="cls-12" x1="857.35" y1="589.86" x2="828.08" y2="589.86"/><line class="cls-12" x1="659.69" y1="500.82" x2="680.39" y2="521.52"/><line class="cls-12" x1="670.04" y1="589.86" x2="640.77" y2="589.86"/><path class="cls-14" d="M741.84,978.1l-42.55,40.16a5.69,5.69,0,0,1-7.43-6.59l-2.6-59.62" transform="translate(0 -137.83)"/><polygon class="cls-10" points="644.85 1289.48 1204.59 1262.48 1807.78 1335.72 1063.52 1385.04 644.85 1289.48"/></g><g id="heqads"><path class="cls-15" d="M747.84,950l15.49,8.31a8.26,8.26,0,0,0,9.37-1.22c3.28-3,7.44-7,10-9.81a12.15,12.15,0,0,0,3.06-5.84l2.61-12.71c5.37-13.48,6.29-26.36-3.52-34.69a2,2,0,0,0-3.28,1.7l.55,7a2.21,2.21,0,0,1-3.26,2.08c-4.93-2.78-13.64-7.57-19.45-10.11a5,5,0,0,0-6.84,3.57l-1.91,9.45a4.66,4.66,0,0,1-5,2.31L739,908.62a4.66,4.66,0,0,0-5.2,2.66l-.14.29a12,12,0,0,0,9.42,16.92h0a4.16,4.16,0,0,1,3.45,5.44l-3.23,10.15C742.38,947,744,948.25,747.84,950Z" transform="translate(0 -137.83)"/></g><g id="Layer_10" data-name="Layer 10"><rect class="cls-16" x="113.41" y="1507.56" width="1492.9" height="117.5" rx="58.75"/></g><g id="comp_screen" data-name="comp screen"><path class="cls-6" d="M1807,742.66l285.17-70.79A11.94,11.94,0,0,1,2106.41,687L2088,746.45a45.79,45.79,0,0,1-39.32,32L1801,802.39a11.94,11.94,0,0,1-12.67-15l10-36.26A11.92,11.92,0,0,1,1807,742.66Z" transform="translate(0 -137.83)"/><path class="cls-6" d="M1400.81,952.68c5.6-24.09-30.09-33.32-37-9.57l-56.3,193.61L1265.63,1282a6.94,6.94,0,0,0,6.15,8.83l330,24.72a6.94,6.94,0,0,0,7.33-8.22c-3.65-19.41-17.26-64.32-65.52-69a73.2,73.2,0,0,1-28.28-8.48c-19.33-10.64-43.69-33.45-28.42-77.63,0,0,11.77-38.81-25.55-67.47a69.85,69.85,0,0,0-38-14c-21.41-1.45-59.16-10.09-42.53-54.49,5.66-15.12,5.66-15.12,17.15-52.76C1398.87,960.44,1399.86,956.78,1400.81,952.68Z" transform="translate(0 -137.83)"/><path class="cls-4" d="M1358.61,959.44" transform="translate(0 -137.83)"/></g><g id="ladder"><path class="cls-17" d="M2036.5,866" transform="translate(0 -137.83)"/><path class="cls-17" d="M1903.19,878.36" transform="translate(0 -137.83)"/><path class="cls-17" d="M1874.42,975.92" transform="translate(0 -137.83)"/><line class="cls-17" x1="1560.66" y1="1090.85" x2="1657.73" y2="1090.85"/><path class="cls-7" d="M1619.6,1465.91c0-2.8-6-9.57-26.13-9.57s-28.73,5.36-28.73,8.16,11,5,31.13,5S1619.6,1468.7,1619.6,1465.91Z" transform="translate(0 -137.83)"/><path class="cls-7" d="M1518.36,1445.88c0-2.79-7.81-5.06-27.89-5.06s-36.37,2.27-36.37,5.06,16.28,5.06,36.37,5.06S1518.36,1448.67,1518.36,1445.88Z" transform="translate(0 -137.83)"/><line class="cls-17" x1="1617.74" y1="844.7" x2="1502.15" y2="1303"/><line class="cls-17" x1="1721.67" y1="810.78" x2="1613.73" y2="1326.67"/><line class="cls-17" x1="1606.05" y1="899.2" x2="1709.41" y2="869.37"/><line class="cls-17" x1="1536.48" y1="1197.38" x2="1637.67" y2="1212.48"/><line class="cls-17" x1="1581.38" y1="995.74" x2="1683.06" y2="987.11"/><polyline class="cls-18" points="1667.79 1002.32 1566.11 1010.95 1543.27 1106.05 1650.78 1106.05 1622.4 1227.69 1521.21 1212.59 1495.91 1303 1602.47 859.91 1590.78 914.4 1694.14 884.57 1706.4 825.98 1606.05 1326.67"/></g><g id="flowers"><polygon class="cls-3" points="1696.91 132.16 1696.91 85.73 1530.9 85.73 1530.9 235.94 1696.91 235.94 1696.91 189.51 1752.11 160.83 1696.91 132.16"/><polygon class="cls-19" points="1703.78 123.4 1703.78 76.97 1537.77 76.97 1537.77 227.18 1703.78 227.18 1703.78 180.75 1758.97 152.07 1703.78 123.4"/><polygon class="cls-16" points="1571.04 225.12 1571.04 178.69 1405.03 178.69 1405.03 328.9 1571.04 328.9 1571.04 282.47 1626.23 253.79 1571.04 225.12"/><polygon class="cls-20" points="1577.66 216.59 1577.66 170.16 1411.65 170.16 1411.65 320.37 1577.66 320.37 1577.66 273.94 1632.86 245.26 1577.66 216.59"/><path class="cls-21" d="M1431.59,394.11,1467,373.93v5.83l-29.82,16.55v.17L1467,413v5.83l-35.39-20.19Z" transform="translate(0 -137.83)"/><path class="cls-21" d="M1472,422.24,1493.24,361h5.19l-21.35,61.23Z" transform="translate(0 -137.83)"/><path class="cls-21" d="M1538.64,398.76l-35.38,20.1V413l30-16.55v-.17l-30-16.55v-5.83l35.38,20.1Z" transform="translate(0 -137.83)"/><circle class="cls-22" cx="1616.47" cy="298.66" r="38.82" transform="translate(1062.74 1708.59) rotate(-80.78)"/><circle class="cls-23" cx="1616.47" cy="160.83" r="31.22"/><path class="cls-24" d="M2028.13,1526.36s82.36-149.39,11-277.51a174.25,174.25,0,0,0-26-34.95c-15-15.76-66.36-63-21.56-124.41" transform="translate(0 -137.83)"/><path class="cls-25" d="M1983.67,1168.48s39.77,11.06,44-44C2027.71,1124.43,1966.09,1122.66,1983.67,1168.48Z" transform="translate(0 -137.83)"/><path class="cls-4" d="M1966.87,1151.84s22.19-34.82-29.28-55C1937.59,1096.86,1917.92,1155.28,1966.87,1151.84Z" transform="translate(0 -137.83)"/><path class="cls-26" d="M2000.43,1209.28s-5.1-41-57.61-23.68C1942.82,1185.6,1964.92,1243.14,2000.43,1209.28Z" transform="translate(0 -137.83)"/><path class="cls-27" d="M2045,1264s-6.1-40.83-58.18-22.28C1986.82,1241.69,2010.32,1298.69,2045,1264Z" transform="translate(0 -137.83)"/><path class="cls-28" d="M2058,1319.55s-5.67-40.89-57.94-22.88C2000.08,1296.67,2023,1353.91,2058,1319.55Z" transform="translate(0 -137.83)"/><path class="cls-3" d="M2066.6,1365.28s-11.33-39.69-60.57-14.56C2006,1350.72,2036.7,1404.19,2066.6,1365.28Z" transform="translate(0 -137.83)"/><path class="cls-3" d="M2058,1428.91s-11.33-39.7-60.57-14.57C1997.43,1414.34,2028.1,1467.82,2058,1428.91Z" transform="translate(0 -137.83)"/><path class="cls-29" d="M2017.64,1214.93s41.21,2.47,33.81-52.32C2051.45,1162.61,1990.83,1173.83,2017.64,1214.93Z" transform="translate(0 -137.83)"/><path class="cls-4" d="M2042.83,1245.68s40.43,8.34,41-46.94C2083.78,1198.74,2022.19,1201.16,2042.83,1245.68Z" transform="translate(0 -137.83)"/><path class="cls-3" d="M2062.81,1292.93c9.15,3,33.05,6.62,46-28.93a6.06,6.06,0,0,0-4.93-8.08c-15.14-1.89-48.74-2.32-45.3,31.84A6.06,6.06,0,0,0,2062.81,1292.93Z" transform="translate(0 -137.83)"/><path class="cls-3" d="M2067.34,1342.83s36.76,18.79,52-34.36C2119.3,1308.47,2059.28,1294.42,2067.34,1342.83Z" transform="translate(0 -137.83)"/><path class="cls-30" d="M2067.34,1399.65s36.76,18.79,52-34.36C2119.3,1365.29,2059.28,1351.25,2067.34,1399.65Z" transform="translate(0 -137.83)"/><path class="cls-31" d="M2058.36,1455.27s32.82,25,57.25-24.55C2115.61,1430.72,2059.05,1406.21,2058.36,1455.27Z" transform="translate(0 -137.83)"/><path class="cls-32" d="M2061.42,1533.62s-30-219.24,124.58-308.2a211.13,211.13,0,0,1,49-20.16c25.46-7.08,108.58-24.18,100.28-116.26" transform="translate(0 -137.83)"/><path class="cls-33" d="M2294.08,1176.27s-48.39-13.33-18.39-73.48C2275.69,1102.79,2341.06,1139.48,2294.08,1176.27Z" transform="translate(0 -137.83)"/><path class="cls-34" d="M2322,1169.42s-1.36-50.17,64.92-39C2386.92,1130.4,2370.89,1203.63,2322,1169.42Z" transform="translate(0 -137.83)"/><path class="cls-3" d="M2251.08,1208.34s30.93-39.52,74.89,11.33C2326,1219.67,2266.94,1265.86,2251.08,1208.34Z" transform="translate(0 -137.83)"/><path class="cls-35" d="M2170.4,1237.5s31.89-38.76,74.6,13.15C2245,1250.65,2184.85,1295.39,2170.4,1237.5Z" transform="translate(0 -137.83)"/><path class="cls-3" d="M2122.06,1287.31s31.49-39.09,74.73,12.38C2196.79,1299.69,2137.11,1345.05,2122.06,1287.31Z" transform="translate(0 -137.83)"/><path class="cls-4" d="M2084.52,1329.64s36.63-34.31,72.27,22.69C2156.79,1352.33,2091.36,1388.92,2084.52,1329.64Z" transform="translate(0 -137.83)"/><path class="cls-4" d="M2053.7,1401.37s36.63-34.31,72.27,22.68C2126,1424.05,2060.54,1460.64,2053.7,1401.37Z" transform="translate(0 -137.83)"/><path class="cls-36" d="M2229.6,1203.47s-44.51-23.2-2.54-75.7C2227.06,1127.77,2283.26,1177.38,2229.6,1203.47Z" transform="translate(0 -137.83)"/><path class="cls-37" d="M2184.1,1219.78s-47.38-16.59-13.35-74.56C2170.75,1145.22,2233.47,1186.27,2184.1,1219.78Z" transform="translate(0 -137.83)"/><path class="cls-38" d="M2133.72,1256.56c-11.39-2.65-38.61-13.77-29.91-59a7.37,7.37,0,0,1,10.19-5.35c17,7.5,52.28,28.06,27.33,61.54A7.37,7.37,0,0,1,2133.72,1256.56Z" transform="translate(0 -137.83)"/><path class="cls-39" d="M2097.79,1305.76s-50.09-3.39-32.7-68.33C2065.09,1237.43,2136.46,1260.33,2097.79,1305.76Z" transform="translate(0 -137.83)"/><path class="cls-4" d="M2062.25,1365s-50.08-3.4-32.7-68.33C2029.55,1296.69,2100.93,1319.58,2062.25,1365Z" transform="translate(0 -137.83)"/><path class="cls-4" d="M2036.83,1428.63s-49.88,5.58-44.34-61.4C1992.49,1367.23,2066.8,1377,2036.83,1428.63Z" transform="translate(0 -137.83)"/><line class="cls-40" x1="1026.16" y1="747.59" x2="1072.68" y2="794.11"/><line class="cls-40" x1="1026.73" y1="793.55" x2="1072.12" y2="748.16"/><circle class="cls-41" cx="1146.2" cy="857.44" r="27.06"/><ellipse class="cls-4" cx="2326.85" cy="1383.83" rx="45.07" ry="9.07"/><ellipse class="cls-4" cx="2230.48" cy="1379.44" rx="22.53" ry="4.53"/></g><g id="Layer_11" data-name="Layer 11"><polyline class="cls-42" points="787.31 844.54 806.97 931.49 861.46 958.31"/><path class="cls-43" d="M774.7,1101.22H863c5.08,0,9.19,3.77,9.19,8.42v64.71" transform="translate(0 -137.83)"/><path class="cls-44" d="M796.73,993.42c-2.11,18.85-11.88,66.35,4.41,87.64a8.27,8.27,0,0,1-4.81,13l-51.1,13a4.46,4.46,0,0,1-5.4-3c-6.9-23.68-35.84-157.8,39.92-139.94C789.16,966.36,797.75,984.31,796.73,993.42Z" transform="translate(0 -137.83)"/><path class="cls-45" d="M749.06,1101.22,804.39,1130a8.55,8.55,0,0,1,5.44,8.3l-7,117.75" transform="translate(0 -137.83)"/></g><g id="Layer_5" data-name="Layer 5"><path class="cls-16" d="M2767,918.34H1774.4c-30.82,0-55.79-25.32-55.79-56.56h0c0-31.23,25-56.55,55.79-56.55H2767" transform="translate(0 -137.83)"/><path class="cls-20" d="M2767,953.43H1827.47c-30.81,0-55.79-25.32-55.79-56.55h0c0-31.24,25-56.56,55.79-56.56H2767" transform="translate(0 -137.83)"/></g></svg>
