<svg xmlns="http://www.w3.org/2000/svg" viewBox="0 0 537.44 85.76"><defs><style>.cls-1{fill:#231f20;}.cls-2{fill:#4ec6e1;}</style></defs><g id="Layer_2" data-name="Layer 2"><g id="Layer_1-2" data-name="Layer 1"><path class="cls-1" d="M206.48,80.54A29.55,29.55,0,0,1,179.8,64.29a31.27,31.27,0,0,1-3.34-14.37c0-9.8,3.68-17.88,10.93-24a29,29,0,0,1,18.73-6.61,27.93,27.93,0,0,1,18.09,6.11V22.49a2,2,0,0,1,2-2h6.62a2,2,0,0,1,2,2V77.34a2,2,0,0,1-2,2h-6.62a2,2,0,0,1-2-2V74.42C219.59,78.48,213.64,80.54,206.48,80.54Zm-.24-50.76a18.54,18.54,0,0,0-12,4.25c-4.61,3.82-7,9.17-7,15.89a21.68,21.68,0,0,0,2.15,9.58,17.39,17.39,0,0,0,5.66,6.82,19.54,19.54,0,0,0,11.24,3.73,19.12,19.12,0,0,0,10.14-2.89A22.53,22.53,0,0,0,224,59.48V39.41A22.58,22.58,0,0,0,217.23,33,19.57,19.57,0,0,0,206.24,29.78Z"/><path class="cls-1" d="M268,80.54a31.93,31.93,0,0,1-22-8.45c-6.26-5.67-9.44-13.12-9.44-22.17a30.18,30.18,0,0,1,8.68-21.6,29.07,29.07,0,0,1,21.71-9,30.49,30.49,0,0,1,22.34,9.13,2,2,0,0,1,.09,2.73l-4.33,4.93a2,2,0,0,1-1.42.68h0a2,2,0,0,1-1.46-.56A21.36,21.36,0,0,0,267,29.78a18.75,18.75,0,0,0-13.73,5.85,19.6,19.6,0,0,0-5.8,14.29,19.52,19.52,0,0,0,5.85,14.28,20,20,0,0,0,14.64,5.85c5.82,0,11-2.34,15.39-7a2,2,0,0,1,1.45-.62,2,2,0,0,1,1.36.53L291,67.57a2,2,0,0,1,.13,2.81A29.9,29.9,0,0,1,268,80.54Z"/><path class="cls-1" d="M321.31,80.54a29.51,29.51,0,0,1-26.68-16.25,31.28,31.28,0,0,1-3.35-14.37c0-9.8,3.68-17.88,10.93-24a29,29,0,0,1,18.73-6.61A27.93,27.93,0,0,1,339,25.4V22.49a2,2,0,0,1,2-2h6.62a2,2,0,0,1,2,2V77.34a2,2,0,0,1-2,2H341a2,2,0,0,1-2-2V74.42C334.41,78.48,328.46,80.54,321.31,80.54Zm-.25-50.76a18.54,18.54,0,0,0-12,4.25c-4.61,3.82-6.95,9.17-6.95,15.89a21.7,21.7,0,0,0,2.14,9.58,17.39,17.39,0,0,0,5.66,6.82,19.57,19.57,0,0,0,11.25,3.73,19.11,19.11,0,0,0,10.13-2.89,22.53,22.53,0,0,0,7.47-7.68V39.41A22.58,22.58,0,0,0,332.05,33,19.57,19.57,0,0,0,321.06,29.78Z"/><path class="cls-2" d="M359.56,79.34a2,2,0,0,1-2-2V3.18a2,2,0,0,1,2-2h21.19c11.05,0,20,2.48,26.71,7.38a37.48,37.48,0,0,1,11.42,13.76,41,41,0,0,1,0,35.88A37.53,37.53,0,0,1,407.47,72c-6.68,4.9-15.67,7.38-26.72,7.38Zm20.87-10c9.18,0,16.36-2,21.34-5.83a28,28,0,0,0,8-10.13,31.14,31.14,0,0,0,0-26.16,28,28,0,0,0-8-10.14c-5-3.86-12.16-5.82-21.33-5.82H367.92V69.3Z"/><path class="cls-2" d="M505.14,79.46a2,2,0,0,1-1.82-1.16L477.41,22.13a2,2,0,0,1,.13-1.92,2,2,0,0,1,1.69-.92h7.58a2,2,0,0,1,1.81,1.17l18.72,40.86,18.71-40.86a2,2,0,0,1,1.82-1.17h7.57a2,2,0,0,1,1.82,2.83L511.48,78.29a2,2,0,0,1-1.82,1.17Z"/><path class="cls-2" d="M40.84,74.34a4.64,4.64,0,0,1-4.63-4.64V42.88a4.64,4.64,0,1,1,9.27,0V69.7A4.64,4.64,0,0,1,40.84,74.34Z"/><path class="cls-1" d="M78.47,85.76a4.44,4.44,0,0,1-1.57-.28l-22.15-8a4.64,4.64,0,0,1,1.57-9,4.71,4.71,0,0,1,1.57.27l20.55,7.38,33.1-12.29V42.61a4.64,4.64,0,0,1,3.13-4.39l23.4-8L78.35,9.54,18.85,30.17,78.47,50.66l16.16-5.55a4.57,4.57,0,0,1,1.51-.26,4.64,4.64,0,0,1,1.5,9L80,60a4.69,4.69,0,0,1-3,0L3.13,34.58a4.64,4.64,0,0,1,0-8.77L76.83.26A4.52,4.52,0,0,1,78.34,0a4.89,4.89,0,0,1,1.52.25l74,25.56a4.64,4.64,0,0,1,0,8.77l-33,11.34V67.11a4.66,4.66,0,0,1-3,4.35l-37.7,14A4.77,4.77,0,0,1,78.47,85.76Z"/><text/><rect class="cls-2" x="428.87" y="20.43" width="42.1" height="10" rx="1"/><rect class="cls-2" x="428.94" y="44.73" width="29.64" height="10" rx="1"/><rect class="cls-2" x="428.19" y="69.03" width="42.1" height="10" rx="1"/></g></g></svg>